<svg width="23" height="23" fill="none" xmlns="http://www.w3.org/2000/svg"><path d="M3.371 3.37c4.494-4.493 11.774-4.493 16.262 0 4.321 4.321 4.484 11.233.483 15.75l-.12.096c.435.937 1.181 2.093 2.367 2.676.392.192.3.775-.13.842-1.295.2-3.154-.024-4.89-1.334l-.023.02c-4.408 2.59-10.172 1.997-13.958-1.788-4.484-4.489-4.484-11.774.01-16.262zm4.34 13.05c.254.257.522.496.76.764.35.392.79.517 1.287.488.726-.038 1.4-.282 2.045-.598a11.122 11.122 0 0 0 3.695-2.892c.76-.903 1.387-1.888 1.802-3.002.201-.54.345-1.09.302-1.673a1.377 1.377 0 0 0-.426-.917c-.287-.273-.554-.555-.836-.832-.368-.363-.827-.359-1.195 0-.23.225-.45.45-.674.674-.22.22-.44.435-.655.655-.383.387-.383.836 0 1.223.272.278.545.555.827.823.071.071.081.129.043.22-.182.44-.45.831-.746 1.195-.597.736-1.276 1.39-2.089 1.897-.172.11-.363.187-.545.287-.09.053-.157.034-.23-.043-.272-.282-.554-.56-.83-.837-.369-.363-.828-.363-1.191 0-.45.445-.894.89-1.339 1.339-.382.392-.382.85-.004 1.228zm4.24-7.429l-.143-1.023a4.537 4.537 0 0 0-2.595 1.296 4.515 4.515 0 0 0-1.272 2.452l1.018.177a3.51 3.51 0 0 1 .985-1.898 3.494 3.494 0 0 1 2.008-1.004zm-5.673 2.725a6.526 6.526 0 0 1 1.82-3.518 6.507 6.507 0 0 1 3.72-1.855l-.144-1.023c-1.64.23-3.13.97-4.302 2.146A7.554 7.554 0 0 0 5.26 11.54l1.018.177z" fill="#27ACE2"/></svg>