<svg width="44" height="47" fill="none" xmlns="http://www.w3.org/2000/svg"><g clip-path="url(#clip0)" fill="#27ACE2"><path d="M17.1 25.2c-1-1.3-.8-3.1.4-4.1 1.3-1 3.1-.8 4.1.4 1 1.3.8 3.1-.4 4.1-.5.4-1.2.6-1.8.6-.8.1-1.7-.3-2.3-1zm-5.5-6.8c-1-1.3-.8-3.1.4-4.1 1.3-1 3.1-.8 4.1.4 1 1.3.8 3.1-.4 4.1-.5.4-1.2.6-1.8.6-.8 0-1.7-.3-2.3-1zm-5.5-6.8c-1-1.3-.8-3.1.4-4.1 1.3-1 3.1-.8 4.1.4 1 1.3.8 3.1-.4 4.1-.5.4-1.2.7-1.8.7-.8-.1-1.7-.4-2.3-1.1zM.6 4.7c-1-1.2-.8-3.1.4-4.1 1.3-1 3.1-.8 4.1.4 1 1.3.8 3.1-.4 4.1-.5.5-1.1.7-1.8.7-.8 0-1.7-.3-2.3-1.1z"/><path d="M17.1 25.2c-1-1.3-.8-3.1.4-4.1 1.3-1 3.1-.8 4.1.4 1 1.3.8 3.1-.4 4.1-.5.4-1.2.6-1.8.6-.8.1-1.7-.3-2.3-1zm-5.5-6.8c-1-1.3-.8-3.1.4-4.1 1.3-1 3.1-.8 4.1.4 1 1.3.8 3.1-.4 4.1-.5.4-1.2.6-1.8.6-.8 0-1.7-.3-2.3-1zm-5.5-6.8c-1-1.3-.8-3.1.4-4.1 1.3-1 3.1-.8 4.1.4 1 1.3.8 3.1-.4 4.1-.5.4-1.2.7-1.8.7-.8-.1-1.7-.4-2.3-1.1zM.6 4.7c-1-1.2-.8-3.1.4-4.1 1.3-1 3.1-.8 4.1.4 1 1.3.8 3.1-.4 4.1-.5.5-1.1.7-1.8.7-.8 0-1.7-.3-2.3-1.1z"/><path d="M19.4 20.4c.6 0 1.3.2 1.8.6 1.3 1 1.5 2.8.4 4.1-1 1.3-2.8 1.5-4.1.4-1.3-1-1.4-2.8-.4-4.1.6-.6 1.5-1 2.3-1zm-5.5 6.8c.6 0 1.3.2 1.8.6 1.3 1 1.5 2.8.4 4.1-1 1.3-2.8 1.5-4.1.4-1.3-1-1.4-2.8-.4-4.1.6-.6 1.5-1 2.3-1zM8.4 34c.6 0 1.3.2 1.8.7 1.3 1 1.5 2.8.4 4.1-1 1.3-2.8 1.4-4.1.4-1.3-1-1.4-2.8-.4-4.1.6-.7 1.5-1.1 2.3-1.1zm-5.5 6.8c.6 0 1.3.2 1.8.7 1.3 1 1.5 2.8.4 4.1-1 1.3-2.8 1.4-4.1.4-1.3-1-1.4-2.9-.4-4.1.6-.7 1.5-1.1 2.3-1.1zM38 25.2c-1-1.3-.8-3.1.4-4.1 1.3-1 3.1-.8 4.1.4 1 1.3.8 3.1-.4 4.1-.5.4-1.2.6-1.8.6-.9.1-1.8-.3-2.3-1zm-5.5-6.8c-1-1.3-.8-3.1.4-4.1 1.3-1 3.1-.8 4.1.4 1 1.3.8 3.1-.4 4.1-.5.4-1.2.6-1.8.6-.9 0-1.8-.3-2.3-1zM27 11.6c-1-1.3-.8-3.1.4-4.1 1.3-1 3.1-.8 4.1.4 1 1.3.8 3.1-.4 4.1-.5.4-1.2.7-1.8.7-.9-.1-1.7-.4-2.3-1.1zm-5.5-6.9c-1-1.2-.8-3.1.4-4.1 1.3-1 3.1-.8 4.1.4 1 1.3.8 3.1-.4 4.1-.5.4-1.2.7-1.8.7-.9 0-1.7-.3-2.3-1.1z"/><path d="M38 25.2c-1-1.3-.8-3.1.4-4.1 1.3-1 3.1-.8 4.1.4 1 1.3.8 3.1-.4 4.1-.5.4-1.2.6-1.8.6-.9.1-1.8-.3-2.3-1zm-5.5-6.8c-1-1.3-.8-3.1.4-4.1 1.3-1 3.1-.8 4.1.4 1 1.3.8 3.1-.4 4.1-.5.4-1.2.6-1.8.6-.9 0-1.8-.3-2.3-1zM27 11.6c-1-1.3-.8-3.1.4-4.1 1.3-1 3.1-.8 4.1.4 1 1.3.8 3.1-.4 4.1-.5.4-1.2.7-1.8.7-.9-.1-1.7-.4-2.3-1.1zm-5.5-6.9c-1-1.2-.8-3.1.4-4.1 1.3-1 3.1-.8 4.1.4 1 1.3.8 3.1-.4 4.1-.5.4-1.2.7-1.8.7-.9 0-1.7-.3-2.3-1.1z"/><path d="M40.2 20.4c.6 0 1.3.2 1.8.6 1.3 1 1.5 2.8.4 4.1-1 1.3-2.8 1.5-4.1.4-1.3-1-1.4-2.8-.4-4.1.6-.6 1.5-1 2.3-1zm-5.5 6.8c.6 0 1.3.2 1.8.6 1.3 1 1.5 2.8.4 4.1-1 1.3-2.8 1.5-4.1.4-1.3-1-1.4-2.8-.4-4.1.6-.6 1.5-1 2.3-1zM29.2 34c.6 0 1.3.2 1.8.7 1.3 1 1.5 2.8.4 4.1-1 1.3-2.8 1.4-4.1.4-1.3-1-1.4-2.8-.4-4.1.7-.7 1.5-1.1 2.3-1.1zm-5.5 6.8c.6 0 1.3.2 1.8.7 1.3 1 1.5 2.8.4 4.1-1 1.3-2.8 1.4-4.1.4-1.3-1-1.4-2.9-.4-4.1.7-.7 1.5-1.1 2.3-1.1z"/></g><defs><clipPath id="clip0"><path fill="#fff" d="M0 0h43.2v46.7H0z"/></clipPath></defs></svg>