<svg width="14" height="14" fill="none" xmlns="http://www.w3.org/2000/svg"><path d="M13.972 5.993a.295.295 0 0 0-.267-.17h-.872A6.479 6.479 0 0 0 6.471.53 6.48 6.48 0 0 0 0 7a6.479 6.479 0 0 0 6.471 6.471c2.303 0 4.45-1.24 5.605-3.234a.588.588 0 0 0-1.018-.59 5.316 5.316 0 0 1-4.587 2.648 5.3 5.3 0 0 1-5.294-5.294A5.301 5.301 0 0 1 6.47 1.706a5.3 5.3 0 0 1 5.159 4.118h-.865a.295.295 0 0 0-.227.482l1.471 1.765a.294.294 0 0 0 .452 0l1.47-1.765a.294.294 0 0 0 .041-.313z" fill="#F5F5F5"/><path d="M6.471 2a.588.588 0 0 0-.588.588v3.57A1.028 1.028 0 0 0 6.906 7.93l2.046 1.18a.588.588 0 0 0 .588-1.018L7.492 6.91a1.025 1.025 0 0 0-.432-.752v-3.57A.59.59 0 0 0 6.471 2zm0 5.441a.442.442 0 1 1 .001-.883.442.442 0 0 1 0 .883z" fill="#F5F5F5"/></svg>