<svg width="86" height="84" fill="none" xmlns="http://www.w3.org/2000/svg"><path opacity=".8" d="M21.172 1.4h34.195c3.147 0 5.699 2.507 5.699 5.6v5.6H15.473V7c0-3.093 2.551-5.6 5.699-5.6zm-5.699 67.2h45.593V77c0 3.093-2.552 5.6-5.7 5.6H21.173c-3.148 0-5.7-2.507-5.7-5.6v-8.4z" fill="#27ACE2"/><path d="M59.641 67.2H22.597V70H59.64v7c0 2.32-1.913 4.2-4.274 4.2H21.172c-2.36 0-4.274-1.88-4.274-4.2V14h37.044v-2.8H16.898V7c0-2.32 1.913-4.2 4.274-4.2h34.195c2.36 0 4.274 1.88 4.274 4.2v14h2.85V7C62.486 3.136 59.3.005 55.367 0H21.172c-3.933.005-7.119 3.136-7.124 7v70c.005 3.864 3.191 6.995 7.124 7h34.195c3.933-.005 7.12-3.136 7.124-7V61.6h-2.85v5.6z" fill="#0060AA"/><path d="M36.845 74.2h2.85V77h-2.85v-2.8zM26.871 5.6h2.85v2.8h-2.85V5.6zm5.699 0h2.85v2.8h-2.85V5.6zM19.747 18.2v5.6h2.85v-4.2h4.274v-2.8h-5.699c-.787 0-1.425.627-1.425 1.4z" fill="#0060AA"/><g clip-path="url(#clip0)"><path opacity=".8" d="M59.157 42c0 5.316-4.385 9.626-9.795 9.626s-9.795-4.31-9.795-9.625c0-5.316 4.385-9.625 9.795-9.625s9.795 4.31 9.795 9.625z" fill="#27ACE2"/><path d="M70.481 35.496c-.547-1.606-1.873-2.618-3.045-3.511-.627-.48-1.219-.93-1.566-1.38-.35-.45-.625-1.124-.917-1.838-.538-1.315-1.146-2.806-2.56-3.776-1.39-.952-3.058-1.04-4.53-1.115-.826-.044-1.607-.085-2.206-.268-.548-.166-1.18-.554-1.848-.965-1.255-.768-2.678-1.64-4.447-1.64-1.772 0-3.196.874-4.452 1.646-.665.41-1.293.795-1.837.96-.6.184-1.385.226-2.216.27-1.468.079-3.134.167-4.527 1.114-1.412.97-2.021 2.46-2.558 3.774-.292.714-.57 1.39-.923 1.845-.342.445-.934.896-1.56 1.375-1.167.892-2.49 1.902-3.042 3.5-.542 1.562-.11 3.104.27 4.464.21.754.41 1.467.41 2.05 0 .584-.2 1.296-.411 2.05-.38 1.36-.812 2.902-.27 4.463.553 1.599 1.875 2.61 3.042 3.501.626.48 1.218.931 1.566 1.382.348.449.623 1.12.915 1.834.54 1.317 1.152 2.81 2.567 3.778 1.387.955 3.056 1.04 4.528 1.118.83.043 1.611.084 2.203.265.542.167 1.17.552 1.833.96 1.258.773 2.687 1.648 4.462 1.648 1.773 0 3.2-.874 4.458-1.645.667-.41 1.297-.794 1.844-.963.592-.182 1.373-.223 2.2-.266 1.471-.077 3.139-.165 4.53-1.116 1.413-.97 2.022-2.46 2.56-3.775.29-.714.568-1.39.921-1.844.342-.444.934-.895 1.56-1.373 1.172-.893 2.5-1.906 3.042-3.502.543-1.562.111-3.104-.269-4.465-.21-.754-.41-1.466-.41-2.05 0-.583.2-1.296.41-2.05.38-1.36.812-2.9.273-4.455zm-3.707 9.483c.257.916.522 1.864.33 2.416-.205.601-1.043 1.24-1.853 1.858-.781.597-1.59 1.214-2.21 2.02-.644.826-1.042 1.8-1.391 2.658-.388.944-.753 1.838-1.293 2.209-.556.381-1.588.435-2.682.492-1.01.053-2.054.107-3.073.42-.984.302-1.837.826-2.666 1.333-.936.574-1.82 1.115-2.574 1.115-.755 0-1.64-.542-2.576-1.117-.824-.506-1.675-1.029-2.657-1.331-1.02-.312-2.065-.367-3.076-.42-1.091-.056-2.123-.11-2.678-.492-.547-.375-.913-1.269-1.301-2.216-.368-.897-.748-1.826-1.386-2.645-.626-.811-1.433-1.43-2.214-2.025-.81-.619-1.647-1.258-1.857-1.866-.189-.544.077-1.491.333-2.407.252-.9.538-1.922.538-2.978 0-1.056-.285-2.077-.538-2.977-.256-.916-.522-1.864-.332-2.41.21-.605 1.047-1.245 1.857-1.864.78-.596 1.587-1.214 2.208-2.02.644-.827 1.042-1.8 1.392-2.658.387-.945.752-1.839 1.286-2.206.558-.38 1.592-.434 2.688-.492 1.012-.055 2.058-.11 3.078-.421.984-.3 1.841-.827 2.67-1.336.934-.576 1.815-1.117 2.565-1.117.749 0 1.629.54 2.56 1.112.834.511 1.696 1.04 2.68 1.337 1.02.313 2.063.368 3.072.419 1.094.057 2.126.111 2.68.492.542.373.908 1.265 1.295 2.21.35.858.748 1.831 1.387 2.652.626.812 1.434 1.429 2.215 2.025.81.617 1.648 1.257 1.856 1.867.189.543-.076 1.491-.333 2.407-.252.901-.538 1.922-.538 2.978 0 1.056.286 2.077.538 2.978z" fill="#0060AA"/><path d="M57.376 42c0 4.343-3.595 7.876-8.014 7.876-4.42 0-8.015-3.533-8.015-7.875 0-4.343 3.595-7.875 8.015-7.875h1.78v-3.5h-1.78c-6.383 0-11.576 5.103-11.576 11.375s5.193 11.374 11.576 11.374c6.382 0 11.575-5.102 11.575-11.374v-1.75h-3.561V42z" fill="#0060AA"/><path d="M47.58 37.776l-2.517 2.475 4.299 4.224 9.642-9.474-2.519-2.474-7.123 7-1.781-1.75z" fill="#0060AA"/></g><defs><clipPath id="clip0"><path fill="#fff" transform="translate(27.99 21)" d="M0 0h42.744v42H0z"/></clipPath></defs></svg>