<svg width="20" height="15" fill="#27ACE2" xmlns="http://www.w3.org/2000/svg"><path d="M20 1.933c-.736.28-1.526.47-2.356.556.848-.437 1.496-1.129 1.804-1.95a9.128 9.128 0 0 1-2.608.856C16.092.708 15.027.28 13.846.28c-2.266 0-4.103 1.58-4.103 3.527 0 .276.036.546.106.804C6.44 4.464 3.417 3.06 1.393.925A3.135 3.135 0 0 0 .84 2.698c0 1.224.724 2.304 1.824 2.936a4.623 4.623 0 0 1-1.858-.443v.044c0 1.709 1.415 3.135 3.29 3.46a4.76 4.76 0 0 1-1.08.123 4.56 4.56 0 0 1-.773-.065c.522 1.402 2.037 2.422 3.832 2.45C4.67 12.148 2.9 12.71.979 12.71c-.332 0-.658-.017-.979-.048 1.816 1.003 3.972 1.587 6.289 1.587 7.547 0 11.673-5.375 11.673-10.037l-.014-.456A7.67 7.67 0 0 0 20 1.933z"/></svg>
