<svg width="20" height="11" fill="#27ACE2" xmlns="http://www.w3.org/2000/svg"><path d="M19.894 9.114a1.12 1.12 0 0 0-.068-.112c-.347-.537-1.01-1.196-1.989-1.978l-.02-.018-.01-.01-.011-.008h-.01c-.445-.364-.726-.61-.844-.734-.216-.24-.264-.48-.146-.726.083-.185.396-.576.937-1.173.285-.316.51-.57.677-.76 1.2-1.375 1.722-2.252 1.562-2.634l-.062-.09c-.042-.053-.15-.102-.323-.147a1.9 1.9 0 0 0-.666-.022l-3 .017a.45.45 0 0 0-.208.005l-.135.027-.052.022-.042.027a.443.443 0 0 0-.114.094.6.6 0 0 0-.104.157 13.826 13.826 0 0 1-1.114 2.014c-.257.37-.493.691-.709.963a4.81 4.81 0 0 1-.541.6 3.64 3.64 0 0 1-.396.309c-.118.077-.208.11-.27.098A8.78 8.78 0 0 1 12.057 5a.64.64 0 0 1-.234-.22.883.883 0 0 1-.12-.348 3.303 3.303 0 0 1-.036-.363 6.436 6.436 0 0 1 .005-.43c.007-.185.01-.31.01-.376 0-.227.006-.473.016-.739l.026-.63c.007-.156.01-.32.01-.493s-.012-.31-.036-.408a1.26 1.26 0 0 0-.109-.286.511.511 0 0 0-.213-.215 1.32 1.32 0 0 0-.35-.121A8.023 8.023 0 0 0 9.623.255C8.33.243 7.502.315 7.133.47a1.392 1.392 0 0 0-.396.268c-.125.132-.142.203-.052.215.417.054.712.182.885.385l.063.108c.049.077.097.214.146.411.048.197.08.415.093.654.035.436.035.809 0 1.12-.034.31-.067.551-.098.724a1.303 1.303 0 0 1-.141.421 1.72 1.72 0 0 1-.125.197.17.17 0 0 1-.052.045.894.894 0 0 1-.281.045c-.098 0-.216-.042-.354-.126a2.399 2.399 0 0 1-.432-.344 4.69 4.69 0 0 1-.506-.614 10.323 10.323 0 0 1-.583-.93l-.166-.26a21.91 21.91 0 0 1-.427-.73c-.18-.32-.34-.629-.48-.927a.609.609 0 0 0-.249-.287L3.926.818a.756.756 0 0 0-.167-.076 1.247 1.247 0 0 0-.24-.058L.668.702c-.292 0-.49.057-.594.17L.031.926A.264.264 0 0 0 0 1.069c0 .066.02.147.063.242.416.842.869 1.653 1.358 2.435.49.782.915 1.412 1.276 1.89.36.477.729.928 1.104 1.352.375.423.623.695.744.814.122.12.217.21.287.269l.26.215c.167.143.411.315.734.515s.68.397 1.073.59c.392.195.848.353 1.37.475.52.123 1.027.172 1.52.148h1.197c.243-.018.427-.084.552-.197l.041-.045a.548.548 0 0 0 .078-.165.789.789 0 0 0 .037-.247 2.548 2.548 0 0 1 .067-.693c.052-.206.111-.361.178-.466a1.17 1.17 0 0 1 .223-.264.887.887 0 0 1 .178-.13.742.742 0 0 1 .083-.031c.166-.048.362-.002.588.139.226.14.438.313.636.519.197.206.435.437.713.694.278.257.52.447.729.573l.208.107c.139.072.32.138.542.197.221.06.416.075.583.045l2.665-.036c.264 0 .469-.037.614-.112.146-.074.233-.156.26-.246a.598.598 0 0 0 .006-.304 1.005 1.005 0 0 0-.073-.238z"/></svg>
