<svg width="85" height="84" fill="none" xmlns="http://www.w3.org/2000/svg"><path d="M24.444 46.2h-.183v1.4a5.067 5.067 0 0 1 .183-1.4z" fill="#BDDBFF"/><path opacity=".8" d="M24.26 60.2V40.6h-8.5V63h8.5v-2.8zm32.584-30.8c0 6.186-5.074 11.2-11.334 11.2s-11.333-5.014-11.333-11.2c0-6.186 5.074-11.2 11.333-11.2 6.26 0 11.334 5.014 11.334 11.2zm-31.167-28h34c3.13 0 5.667 2.507 5.667 5.6v5.6H20.01V7c0-3.093 2.537-5.6 5.666-5.6zM20.01 68.6h45.334V77c0 3.093-2.537 5.6-5.667 5.6h-34c-3.13 0-5.666-2.507-5.666-5.6v-8.4z" fill="#27ACE2"/><path d="M21.427 14H58.26v-2.8H21.427V7c0-2.32 1.903-4.2 4.25-4.2h34c2.347 0 4.25 1.88 4.25 4.2v12.6h2.833V7c-.004-3.864-3.173-6.995-7.083-7h-34c-3.91.005-7.078 3.136-7.083 7v18.2h2.833V14zm42.5 53.2H27.094V70h36.833v7c0 2.32-1.903 4.2-4.25 4.2h-34c-2.347 0-4.25-1.88-4.25-4.2v-9.8h-2.833V77c.005 3.864 3.173 6.995 7.083 7h34c3.91-.005 7.079-3.136 7.083-7V61.6h-2.833v5.6z" fill="#0060AA"/><path d="M41.26 74.2h2.834V77H41.26v-2.8zM31.344 5.6h2.833v2.8h-2.833V5.6zm5.666 0h2.834v2.8H37.01V5.6zM24.26 18.2v5.6h2.834v-4.2h4.25v-2.8h-5.667c-.782 0-1.416.627-1.416 1.4zm45.953 20.388c-2.77-2.73-7.253-2.73-10.022 0l-7.48 7.392a4.367 4.367 0 0 0-2.95-1.18h-7.676c-1.123-2.553-3.674-4.203-6.491-4.2h-5.667a7.14 7.14 0 0 0-4.25 1.4v-1.4c0-.773-.634-1.4-1.417-1.4h-8.5c-.782 0-1.416.627-1.416 1.4V63c0 .773.634 1.4 1.416 1.4h8.5c.783 0 1.417-.627 1.417-1.4v-1.4h22.667c.375 0 .736-.148 1.001-.41l20.868-20.622a1.39 1.39 0 0 0 0-1.98zM22.843 61.6h-5.666V42h5.667v19.6zm24.914-2.8h-22.08V47.6c-.003-.339.04-.677.129-1.004 0-.017 0-.034.011-.05.48-1.855 2.173-3.15 4.11-3.146h5.667c1.936-.003 3.628 1.292 4.108 3.146.16.62.726 1.055 1.374 1.054h8.684c.317.004.624.11.873.303.23.175.395.418.473.692 0 .017.016.03.02.045a1.36 1.36 0 0 1-.383 1.356 1.365 1.365 0 0 1-.983.404H34.177v2.8H49.76c2.342-.013 4.237-1.886 4.25-4.2 0-.108-.017-.213-.025-.32l8.217-8.112a4.393 4.393 0 0 1 4.842-.82L47.757 58.8z" fill="#0060AA"/><path d="M18.594 44.8h2.833v2.8h-2.833v-2.8zm25.5-23.8v1.658c-1.95.678-3.12 2.648-2.77 4.662.35 2.014 2.119 3.484 4.187 3.48.782 0 1.416.627 1.416 1.4 0 .773-.634 1.4-1.416 1.4a1.409 1.409 0 0 1-1.417-1.4H41.26a4.204 4.204 0 0 0 2.834 3.942V37.8h2.833v-1.658c1.95-.678 3.12-2.648 2.77-4.662-.35-2.014-2.119-3.484-4.187-3.48a1.409 1.409 0 0 1-1.416-1.4c0-.773.634-1.4 1.416-1.4.783 0 1.417.627 1.417 1.4h2.834a4.204 4.204 0 0 0-2.834-3.942V21h-2.833z" fill="#0060AA"/><path d="M32.76 29.4c0 6.959 5.709 12.6 12.75 12.6 7.042 0 12.75-5.641 12.75-12.6s-5.708-12.6-12.75-12.6c-7.038.008-12.742 5.644-12.75 12.6zm22.667 0c0 5.413-4.44 9.8-9.916 9.8-5.478 0-9.917-4.387-9.917-9.8 0-5.413 4.44-9.8 9.916-9.8 5.475.006 9.91 4.39 9.917 9.8z" fill="#0060AA"/></svg>