<svg width="24" height="22" fill="#27ACE2" xmlns="http://www.w3.org/2000/svg"><g clip-path="url(#clip0)"><g clip-path="url(#clip1)"><path d="M15.75.84h-7.5A6.25 6.25 0 0 0 2 7.09v7.5a6.25 6.25 0 0 0 6.25 6.25h7.5A6.25 6.25 0 0 0 22 14.59v-7.5A6.25 6.25 0 0 0 15.75.84zm4.375 13.75a4.38 4.38 0 0 1-4.375 4.376h-7.5a4.38 4.38 0 0 1-4.375-4.375v-7.5A4.38 4.38 0 0 1 8.25 2.716h7.5a4.38 4.38 0 0 1 4.375 4.375v7.5z"/><path d="M12 5.84a5 5 0 1 0 0 10.001 5 5 0 0 0 0-10zm0 8.126a3.13 3.13 0 0 1-3.125-3.125A3.129 3.129 0 0 1 12 7.716a3.129 3.129 0 0 1 3.125 3.125A3.13 3.13 0 0 1 12 13.966zm5.375-7.834a.666.666 0 1 0 0-1.332.666.666 0 0 0 0 1.332z"/></g></g><defs><clipPath id="clip0"><path fill="#fff" transform="translate(0 .84)" d="M0 0h24v20.636H0z"/></clipPath><clipPath id="clip1"><path fill="#fff" transform="translate(2 .84)" d="M0 0h20v20H0z"/></clipPath></defs></svg>