<svg width="86" height="84" fill="none" xmlns="http://www.w3.org/2000/svg"><path opacity=".8" d="M26.166 1.4h34.195c3.148 0 5.7 2.507 5.7 5.6v5.6H20.466V7c0-3.093 2.552-5.6 5.7-5.6zm-5.699 67.2H66.06V77c0 3.093-2.551 5.6-5.699 5.6H26.166c-3.147 0-5.699-2.507-5.699-5.6v-8.4z" fill="#27ACE2"/><path d="M21.892 14h37.044v-2.8H21.892V7c0-2.32 1.914-4.2 4.274-4.2h34.195c2.36 0 4.275 1.88 4.275 4.2v12.6h2.85V7C67.48 3.136 64.293.005 60.36 0H26.166c-3.933.005-7.119 3.136-7.124 7v18.2h2.85V14zm42.744 53.2H27.59V70h37.045v7c0 2.32-1.914 4.2-4.275 4.2H26.166c-2.36 0-4.274-1.88-4.274-4.2v-9.8h-2.85V77c.005 3.864 3.191 6.995 7.124 7h34.195c3.933-.005 7.12-3.136 7.124-7V61.6h-2.85v5.6z" fill="#0060AA"/><path d="M41.839 74.2h2.85V77h-2.85v-2.8zM31.865 5.6h2.85v2.8h-2.85V5.6zm5.7 0h2.849v2.8h-2.85V5.6zM24.741 18.2v5.6h2.85v-4.2h4.274v-2.8h-5.699c-.787 0-1.425.627-1.425 1.4z" fill="#0060AA"/><path d="M58.97 43c0 8.068-6.656 14.609-14.867 14.609-8.21 0-14.867-6.541-14.867-14.609s6.657-14.609 14.867-14.609c8.211 0 14.868 6.541 14.868 14.609z" fill="#27ACE2" opacity=".8"/><path d="M44.103 22c-11.784 0-21.372 9.42-21.372 21s9.588 21 21.372 21c11.786 0 21.372-9.42 21.372-21S55.89 22 44.103 22zm0 40.174c-10.76 0-19.513-8.602-19.513-19.174s8.753-19.174 19.513-19.174c10.76 0 19.514 8.602 19.514 19.174s-8.754 19.174-19.514 19.174z" fill="#0060AA" stroke="#0060AA"/><path d="M44.103 56.696a.921.921 0 0 0-.929.913c0 .505.417.913.93.913 8.71 0 15.796-6.963 15.796-15.522a.92.92 0 0 0-.93-.913.92.92 0 0 0-.928.913c0 7.552-6.253 13.696-13.939 13.696zm0-27.392c.513 0 .93-.408.93-.913a.921.921 0 0 0-.93-.913c-8.71 0-15.796 6.963-15.796 15.522a.92.92 0 0 0 .93.913.92.92 0 0 0 .928-.913c0-7.552 6.253-13.696 13.938-13.696zm0 3.652a.921.921 0 0 0-.929.914V43c0 .505.417.913.93.913h9.291a.92.92 0 0 0 .93-.913.92.92 0 0 0-.93-.913h-8.363V33.87a.921.921 0 0 0-.929-.913z" fill="#0060AA"/><path d="M34.247 51.394l-1.31 1.286a.9.9 0 0 0 0 1.291.939.939 0 0 0 1.315 0l1.31-1.286a.9.9 0 0 0 0-1.291.943.943 0 0 0-1.315 0zm19.056-16.52c.237 0 .476-.09.657-.268l1.309-1.286a.9.9 0 0 0 0-1.291.94.94 0 0 0-1.314 0l-1.31 1.286a.9.9 0 0 0 0 1.291.94.94 0 0 0 .658.268z" fill="#0060AA" stroke="#0060AA"/></svg>