<svg width="86" height="84" fill="none" xmlns="http://www.w3.org/2000/svg"><path opacity=".8" d="M63.87 33.278l3.224-3.164-4.041-3.948-3.24 3.15a15.569 15.569 0 0 0-6.063-2.464V22.4h-5.733v4.452a15.569 15.569 0 0 0-6.063 2.464l-3.24-3.15-4.042 3.948 3.225 3.164a14.824 14.824 0 0 0-2.522 5.922h-4.558v5.6h4.558a14.824 14.824 0 0 0 2.522 5.922l-3.225 3.164 4.042 3.948 3.24-3.15a15.569 15.569 0 0 0 6.063 2.464V61.6h5.733v-4.452a15.57 15.57 0 0 0 6.063-2.464l3.24 3.15 4.041-3.948-3.225-3.164a14.823 14.823 0 0 0 2.523-5.922h4.558v-5.6h-4.558a14.823 14.823 0 0 0-2.523-5.922zM50.882 49c-3.957 0-7.166-3.134-7.166-7s3.209-7 7.166-7c3.958 0 7.167 3.134 7.167 7s-3.209 7-7.167 7zM20.783 1.4h34.4c3.167 0 5.734 2.507 5.734 5.6v5.6H15.05V7c0-3.093 2.567-5.6 5.733-5.6zM15.05 68.6h45.867V77c0 3.093-2.567 5.6-5.734 5.6h-34.4c-3.166 0-5.733-2.507-5.733-5.6v-8.4z" fill="#27ACE2"/><path d="M59.483 67.2H22.217V70h37.266v7c0 2.32-1.925 4.2-4.3 4.2h-34.4c-2.374 0-4.3-1.88-4.3-4.2V14H53.75v-2.8H16.483V7c0-2.32 1.926-4.2 4.3-4.2h34.4c2.375 0 4.3 1.88 4.3 4.2v14h2.867V7c-.005-3.864-3.21-6.995-7.167-7h-34.4c-3.956.005-7.161 3.136-7.166 7v70c.005 3.864 3.21 6.995 7.166 7h34.4c3.957-.005 7.162-3.136 7.167-7V61.6h-2.867v5.6z" fill="#0060AA"/><path d="M36.55 74.2h2.867V77H36.55v-2.8zM26.517 5.6h2.866v2.8h-2.866V5.6zm5.733 0h2.867v2.8H32.25V5.6zm-12.9 12.6v5.6h2.867v-4.2h4.3v-2.8h-5.734c-.791 0-1.433.627-1.433 1.4zm51.6 19.6h-3.404a16.088 16.088 0 0 0-1.847-4.333l2.412-2.366a1.376 1.376 0 0 0 0-1.976l-4.042-3.949a1.457 1.457 0 0 0-2.024 0l-2.418 2.352a16.897 16.897 0 0 0-4.444-1.803V22.4c0-.773-.642-1.4-1.433-1.4h-5.733c-.792 0-1.434.627-1.434 1.4v3.325a16.91 16.91 0 0 0-4.436 1.803l-2.422-2.355a1.457 1.457 0 0 0-2.024 0l-4.042 3.948a1.377 1.377 0 0 0 0 1.977l2.41 2.366a16.102 16.102 0 0 0-1.848 4.336h-3.404c-.792 0-1.434.627-1.434 1.4v5.6c0 .773.642 1.4 1.434 1.4h3.404a16.076 16.076 0 0 0 1.846 4.34l-2.411 2.366a1.377 1.377 0 0 0 0 1.977l4.042 3.948c.56.545 1.465.545 2.024 0l2.422-2.355a16.892 16.892 0 0 0 4.44 1.799V61.6c0 .773.641 1.4 1.433 1.4h5.733c.791 0 1.433-.627 1.433-1.4v-3.325a16.897 16.897 0 0 0 4.444-1.803l2.422 2.355a1.46 1.46 0 0 0 2.024 0l4.042-3.948a1.377 1.377 0 0 0 0-1.977L65.7 50.54a16.076 16.076 0 0 0 1.846-4.34h3.404c.791 0 1.433-.627 1.433-1.4v-5.6c0-.773-.641-1.4-1.433-1.4zm-1.433 5.6h-3.125c-.693 0-1.287.485-1.41 1.15a13.383 13.383 0 0 1-2.294 5.373 1.375 1.375 0 0 0 .162 1.787l2.223 2.174-2.022 1.976-2.226-2.163a1.458 1.458 0 0 0-1.83-.158 14.062 14.062 0 0 1-5.5 2.24 1.41 1.41 0 0 0-1.178 1.369V60.2H49.45v-3.052a1.41 1.41 0 0 0-1.178-1.378 14.053 14.053 0 0 1-5.5-2.24 1.458 1.458 0 0 0-1.83.159l-2.226 2.17-2.023-1.975 2.215-2.174a1.373 1.373 0 0 0 .161-1.787 13.392 13.392 0 0 1-2.292-5.373 1.425 1.425 0 0 0-1.402-1.15H32.25v-2.8h3.125c.693 0 1.287-.485 1.41-1.15a13.383 13.383 0 0 1 2.294-5.373 1.375 1.375 0 0 0-.163-1.787l-2.223-2.174 2.023-1.976 2.226 2.163c.49.478 1.26.545 1.83.158a14.062 14.062 0 0 1 5.5-2.24 1.41 1.41 0 0 0 1.178-1.369V23.8h2.867v3.052a1.41 1.41 0 0 0 1.178 1.378 14.053 14.053 0 0 1 5.5 2.24c.569.386 1.34.32 1.83-.159l2.225-2.17 2.023 1.975-2.214 2.174a1.375 1.375 0 0 0-.162 1.787 13.392 13.392 0 0 1 2.293 5.373 1.425 1.425 0 0 0 1.402 1.15h3.125v2.8z" fill="#0060AA"/><path d="M50.704 33.25c-4.75 0-8.6 3.761-8.6 8.4s3.85 8.4 8.6 8.4 8.6-3.761 8.6-8.4c-.005-4.637-3.852-8.395-8.6-8.4zm0 14c-3.166 0-5.733-2.507-5.733-5.6 0-3.093 2.567-5.6 5.733-5.6 3.166 0 5.734 2.507 5.734 5.6 0 3.093-2.568 5.6-5.734 5.6z" fill="#0060AA"/></svg>