<svg width="23" height="23" fill="none" xmlns="http://www.w3.org/2000/svg"><g clip-path="url(#clip0)"><path d="M3.36 3.361c-4.482 4.477-4.482 11.742-.012 16.224 3.779 3.779 9.524 4.369 13.923 1.782l.024-.018c1.728 1.305 3.588 1.532 4.875 1.33.43-.066.519-.65.131-.841-1.18-.584-1.925-1.735-2.36-2.67l.12-.096c3.992-4.505 3.826-11.401-.483-15.71-4.47-4.482-11.736-4.482-16.218 0z" fill="#27ACE2"/><path d="M16.462 6.067c-1.33-1.221-2.98-1.835-4.947-1.835-2.074 0-3.838.697-5.299 2.086C4.756 7.712 4.03 9.44 4.03 11.515c0 1.985.697 3.695 2.08 5.126 1.395 1.43 3.26 2.145 5.614 2.145a10.53 10.53 0 0 0 4.178-.876.894.894 0 0 0 .483-1.15.885.885 0 0 0-1.174-.483c-1.186.513-2.348.769-3.487.769-1.805 0-3.2-.548-4.195-1.651-.99-1.097-1.484-2.39-1.484-3.874 0-1.61.53-2.95 1.59-4.03C8.69 6.42 9.996 5.878 11.54 5.878c1.424 0 2.622.44 3.606 1.329.977.882 1.472 1.996 1.472 3.337 0 .918-.227 1.681-.674 2.295-.447.614-.912.912-1.4.912-.263 0-.394-.137-.394-.423 0-.227.018-.495.048-.805l.554-4.518H12.85l-.12.441c-.482-.393-1.013-.596-1.59-.596-.913 0-1.7.364-2.349 1.091-.655.727-.977 1.663-.977 2.813 0 1.12.286 2.027.864 2.712.578.691 1.275 1.031 2.086 1.031.727 0 1.347-.304 1.865-.912.388.585.96.877 1.717.877 1.114 0 2.074-.483 2.885-1.455.81-.965 1.215-2.14 1.215-3.504.006-1.729-.655-3.213-1.984-4.435zm-4.38 6.83c-.335.454-.74.68-1.205.68-.316 0-.572-.167-.769-.5-.196-.334-.292-.745-.292-1.24 0-.614.137-1.103.411-1.478.275-.376.614-.567 1.014-.567.351 0 .661.138.935.424.275.28.412.655.412 1.126 0 .584-.167 1.103-.507 1.556z" fill="#fff"/></g><defs><clipPath id="clip0"><path fill="#fff" d="M0 0h23v23H0z"/></clipPath></defs></svg>