<svg width="10" height="15" fill="none" xmlns="http://www.w3.org/2000/svg"><path d="M8.366.856H1.634C.99.856.47 1.306.47 1.858v11.755c0 .552.52 1 1.164 1h6.732c.643 0 1.164-.448 1.164-1V1.857c0-.553-.52-1.002-1.164-1.002zm-5.027.609h3.323c.084 0 .152.107.152.24 0 .134-.068.242-.152.242H3.34c-.085 0-.152-.108-.152-.241 0-.134.067-.241.152-.241zM5 13.625c-.41 0-.744-.287-.744-.64 0-.353.334-.639.744-.639.408 0 .742.286.742.639 0 .353-.334.64-.742.64zm3.657-2.19H1.343V2.546h7.315v8.887z" fill="#27ACE2"/></svg>