<svg width="17" height="17" fill="none" xmlns="http://www.w3.org/2000/svg"><g clip-path="url(#clip0)" fill="#fff"><path d="M14.571 0a.607.607 0 0 0-.607.607v2.218A7.878 7.878 0 0 0 .607 8.5a.607.607 0 1 0 1.214 0 6.679 6.679 0 0 1 11.605-4.508l-2.69.897a.608.608 0 1 0 .384 1.153l3.643-1.214a.607.607 0 0 0 .415-.578V.607A.607.607 0 0 0 14.572 0zm1.215 7.893a.607.607 0 0 0-.607.607 6.679 6.679 0 0 1-11.605 4.508l2.69-.897a.608.608 0 0 0-.385-1.153l-3.642 1.214a.607.607 0 0 0-.416.578v3.643a.607.607 0 0 0 1.215 0v-2.218A7.878 7.878 0 0 0 16.393 8.5a.607.607 0 0 0-.607-.607z"/></g><defs><clipPath id="clip0"><path fill="#fff" d="M0 0h17v17H0z"/></clipPath></defs></svg>